<svg width="15" height="25" viewBox="0 0 15 25" fill="none" xmlns="http://www.w3.org/2000/svg">
<path d="M14.0757 0.567529C14.4272 0.919144 14.6246 1.39597 14.6246 1.89315C14.6246 2.39034 14.4272 2.86716 14.0757 3.21878L4.7944 12.5L14.0757 21.7813C14.4172 22.1349 14.6062 22.6085 14.6019 23.1002C14.5976 23.5918 14.4005 24.062 14.0528 24.4097C13.7052 24.7573 13.2349 24.9545 12.7433 24.9588C12.2517 24.9631 11.778 24.7741 11.4244 24.4325L0.817529 13.8257C0.466021 13.474 0.268555 12.9972 0.268555 12.5C0.268555 12.0028 0.466021 11.526 0.817529 11.1744L11.4244 0.567529C11.776 0.216021 12.2528 0.0185547 12.75 0.0185547C13.2472 0.0185547 13.724 0.216021 14.0757 0.567529Z" fill="#FF5555"/>
</svg>
