<svg width="85" height="80" viewBox="0 0 85 80" fill="none" xmlns="http://www.w3.org/2000/svg">
<path d="M79.2536 45.5789L58.6193 32.1242L34.1709 49.6174L35.0684 59.8188L44.8281 69.242C44.8281 69.242 46.2864 75.412 43.7063 77.0947C41.1261 78.7774 37.4242 80.1236 29.1298 79.6748C20.8284 79.2261 18.1431 76.4216 17.3578 75.5241C16.5725 74.6267 15.3385 71.3734 15.3385 71.3734C15.3385 71.3734 8.74792 69.866 5.24927 64.867C2.10821 60.3797 2.66911 56.4534 3.23002 54.4411C3.79092 52.4219 5.24927 51.1879 5.24927 51.1879L4.80055 50.0661C4.80055 50.0661 0.649857 48.0468 0.0889524 43.2231C-0.471952 38.3993 1.65948 31.3389 5.36145 26.0664C9.06343 20.7939 10.1852 21.3548 10.1852 21.3548C10.1852 21.3548 8.6147 20.4573 9.06343 16.531C9.51215 12.6047 15.1212 8.00527 20.4989 4.64685C25.8765 1.28844 29.8309 -0.534505 33.7572 0.138581C37.6836 0.811666 39.0648 2.92908 39.0648 2.92908C39.0648 2.92908 44.9473 -0.962194 52.1199 0.496158C59.2924 1.95451 62.6578 6.89047 63.2188 7.9001C63.7797 8.90972 64.6771 8.68536 64.6771 8.68536C64.6771 8.68536 67.4816 7.9001 72.081 10.2559C76.6805 12.6117 78.251 17.3233 78.5875 18.6695C78.9241 20.0156 79.3728 22.4836 79.3728 22.4836C79.3728 22.4836 81.3851 23.8578 82.7663 26.9708C84.5612 31.0094 84.8697 35.6088 83.86 40.3204C82.8714 44.9478 81.953 46.3781 81.953 46.3781L79.2536 45.5789Z" fill="#F6AF3D"/>
<path d="M15.9978 13.1518C17.4632 15.1079 19.819 13.5304 22.5674 11.3218C25.3159 9.11326 26.9986 7.50066 25.6243 5.9792C24.2501 4.45775 20.7375 6.74344 18.9005 8.11765C17.0706 9.48486 14.6236 11.3148 15.9978 13.1518Z" fill="#F9E0CA"/>
<path d="M9.96781 53.6489C8.56555 53.6489 7.95557 55.3106 7.95557 56.797C7.95557 58.2834 7.95557 59.7698 9.5261 59.8539C10.7531 59.924 11.5383 59.0687 11.6225 56.7059C11.7136 54.5183 11.1948 53.6489 9.96781 53.6489Z" fill="#F9E0CA"/>
<path d="M40.9998 65.5471L39.6536 66.087L32.467 64.853L25.0701 65.8276L20.1552 67.91C18.4444 71.7942 22.497 79.3103 29.1226 79.6679C37.424 80.1166 41.119 78.7705 43.6991 77.0878C46.2793 75.405 44.821 69.2351 44.821 69.2351L40.9998 65.5471Z" fill="url(#paint0_radial_29_26)"/>
<path d="M36.5476 55.3874L40.9437 43.2648L30.8194 28.478L21.4943 23.1494C21.4943 23.1494 16.5373 26.1503 14.3007 32.0748C11.6364 39.1352 14.1675 47.2613 14.1675 47.2613L26.4443 48.8599L36.5476 55.3874Z" fill="url(#paint1_radial_29_26)"/>
<path d="M37.0805 35.8053L28.8212 26.2138L15.8433 19.8756C15.8433 19.8756 30.2234 17.4567 36.8842 13.9931C43.5449 10.5295 43.4468 4.60498 43.4468 4.60498L50.8016 12.8853L55.3309 23.9422L56.5299 34.4661L41.3434 39.2619L38.013 38.5958L37.0805 35.8053Z" fill="url(#paint2_radial_29_26)"/>
<path d="M45.0244 6.41369C45.0244 6.41369 49.091 4.80109 54.6369 5.84578C61.2205 7.08678 66.4019 10.5994 66.4019 10.5994L69.2415 20.878L68.3861 30.2031L65.4554 34.9988L56.53 32.0751L55.0646 21.4179L50.6685 13.8246L45.0244 6.41369Z" fill="url(#paint3_radial_29_26)"/>
<path d="M14.7145 57.6596C16.0747 66.1643 21.228 67.5105 21.228 67.5105L29.887 64.9794L36.2813 65.7787L32.8177 51.125L21.228 47.395C21.228 47.395 13.1159 47.6685 14.7145 57.6596Z" fill="url(#paint4_radial_29_26)"/>
<path d="M14.0136 25.9054C10.6692 24.0685 7.41593 29.5513 6.30113 31.5565C5.15829 33.6179 4.56934 39.3321 6.37826 39.8789C8.1381 40.4118 9.04255 36.4855 10.6552 34.3821C13.1722 31.0938 17.9119 28.0439 14.0136 25.9054Z" fill="#F9E0CA"/>
<path d="M65.3992 36.5414L71.8005 40.7131L75.8951 36.6045L78.8539 28.24L79.3727 22.4697C79.3727 22.4697 78.924 20.0017 78.5874 18.6555C78.2509 17.3094 76.6523 12.6468 72.0809 10.242C68.3509 8.27879 65.5324 8.47511 64.6279 8.5943L69.2484 20.8711L67.4956 30.9884L65.3992 36.5414Z" fill="url(#paint5_radial_29_26)"/>
<path d="M82.7593 26.9639C81.6025 24.3347 79.9127 22.8763 79.3729 22.4907L78.854 28.254L76.2528 37.53L71.9619 40.8253L79.2607 45.586L81.953 46.3712C81.953 46.3712 82.8645 44.9409 83.8601 40.3135C84.8627 35.5949 84.5402 31.0024 82.7593 26.9639Z" fill="url(#paint6_radial_29_26)"/>
<path d="M35.5313 34.5712C35.5313 34.5712 41.0141 37.6562 48.1587 31.5353C53.4382 27.006 54.3707 22.4136 54.3707 22.4136C54.3707 22.4136 56.6914 27.1462 61.2348 28.8149C65.7781 30.4836 68.6597 28.8149 68.6597 28.8149C68.6597 28.8149 68.7509 32.4327 71.2609 34.6623C73.764 36.8919 75.9024 36.6115 75.9024 36.6115C75.9024 36.6115 75.0681 41.0636 78.132 42.8305C81.1959 44.5903 82.8646 44.0364 82.8646 44.0364C82.8646 44.0364 81.5675 50.8374 77.1154 50.9005C70.4336 50.9917 69.8797 42.2696 69.8797 42.2696C69.8797 42.2696 68.0217 41.9891 66.7246 41.4352C65.4275 40.8814 64.1234 40.04 64.1234 40.04C64.1234 40.04 62.1743 40.8743 60.5967 41.0636C59.0192 41.2459 56.8877 40.692 56.8877 40.692C56.8877 40.692 55.8641 44.401 51.6924 47.7454C47.5206 51.0898 42.5075 52.0153 42.5075 52.0153C42.5075 52.0153 42.9703 53.7751 42.136 55.9136C41.4068 57.7716 39.3525 59.7207 39.3525 59.7207C39.3525 59.7207 40.4673 60.4639 41.0212 61.9503C41.575 63.4367 41.575 65.1054 41.575 65.1054C41.575 65.1054 46.3427 66.094 47.3243 70.1185C48.4391 74.6618 43.3349 77.4453 43.3349 77.4453C43.3349 77.4453 45.4383 73.0212 43.1526 69.6487C39.8152 64.7338 31.1843 64.6357 31.1843 64.6357C31.1843 64.6357 31.8363 60.9267 31.0931 57.4C30.3499 53.8733 26.4517 48.8672 26.4517 48.8672C26.4517 48.8672 29.8872 47.7524 32.4814 43.5807C35.0756 39.409 35.5313 34.5712 35.5313 34.5712Z" fill="#CF7118"/>
<path d="M39.31 59.4404C38.637 61.067 33.7361 49.7998 20.9825 49.7157C8.22892 49.6315 3.83984 52.9619 3.83984 52.9619C3.83984 52.9619 4.23248 51.791 4.25351 51.153C4.27454 50.515 4.19742 49.7157 4.19742 49.7157C4.19742 49.7157 7.91341 45.7052 16.5513 45.5019C24.7616 45.3056 30.8684 47.0163 35.0612 51.3002C39.261 55.5771 39.7097 58.4798 39.31 59.4404Z" fill="url(#paint7_radial_29_26)"/>
<path d="M39.6536 66.0939C39.5625 67.6364 33.9745 65.3647 26.262 67.391C18.5496 69.4173 15.9554 73.3156 15.9554 73.3156C15.9554 73.3156 15.4857 72.4462 15.0299 71.8782C14.5742 71.3103 13.5996 70.6372 13.5996 70.6372C13.5996 70.6372 17.3366 65.6031 25.4487 64.1448C33.5608 62.6864 39.7378 64.7127 39.6536 66.0939Z" fill="url(#paint8_radial_29_26)"/>
<path d="M9.00747 18.7606C9.00747 18.7606 9.14068 19.7562 8.97942 20.7237C8.81816 21.6983 8.47461 22.3013 8.47461 22.3013C8.47461 22.3013 18.1432 22.5747 24.5585 27.0409C30.9739 31.5071 36.1623 37.7612 38.6022 42.6341C41.0421 47.5069 40.8739 51.0757 42.0097 50.5919C43.1455 50.1081 42.823 44.0994 39.738 38.4133C36.653 32.7271 31.2964 25.1829 23.3386 21.8526C15.3807 18.5222 9.00747 18.7606 9.00747 18.7606Z" fill="url(#paint9_radial_29_26)"/>
<path d="M39.2192 2.87293C39.0159 3.41981 46.8265 9.0569 50.5144 16.2365C54.2024 23.4231 54.9666 30.6097 55.4083 34.1714C55.85 37.7331 55.5976 40.2782 56.6143 40.0188C57.6309 39.7664 57.8553 37.3475 58.1427 32.2643C58.4583 26.5431 56.2076 19.3144 53.3751 14.2663C50.4794 9.11299 45.5084 4.7169 42.2481 3.24453C40.8178 2.59949 39.4646 2.19984 39.2192 2.87293Z" fill="url(#paint10_radial_29_26)"/>
<path d="M63.5692 8.40499C63.3168 8.69947 67.8532 13.8808 67.6148 22.7852C67.3974 31.1286 63.6744 38.4274 64.3054 38.6798C64.9435 38.9322 66.2125 37.4739 67.9934 33.7228C69.7743 29.9718 71.3658 24.1173 70.3492 18.4592C69.592 14.2384 67.5096 10.4313 65.7498 9.14819C65.1538 8.71349 63.8848 8.03339 63.5692 8.40499Z" fill="url(#paint11_radial_29_26)"/>
<path d="M70.9241 41.6106C71.4359 42.466 76.0423 40.5379 78.2649 35.637C80.4875 30.7431 80.4945 23.7808 79.2395 23.872C78.5875 23.9211 78.5524 29.2076 75.5656 35.2443C73.6024 39.2127 70.7278 41.2951 70.9241 41.6106Z" fill="url(#paint12_radial_29_26)"/>
<defs>
<radialGradient id="paint0_radial_29_26" cx="0" cy="0" r="1" gradientUnits="userSpaceOnUse" gradientTransform="translate(43.5701 63.3393) scale(27.3343 27.3343)">
<stop offset="0.34" stop-color="#E07F16"/>
<stop offset="0.821" stop-color="#E07F16" stop-opacity="0"/>
</radialGradient>
<radialGradient id="paint1_radial_29_26" cx="0" cy="0" r="1" gradientUnits="userSpaceOnUse" gradientTransform="translate(35.2673 40.4414) scale(21.876 21.876)">
<stop offset="0.254" stop-color="#E07F16"/>
<stop offset="1" stop-color="#E07F16" stop-opacity="0"/>
</radialGradient>
<radialGradient id="paint2_radial_29_26" cx="0" cy="0" r="1" gradientUnits="userSpaceOnUse" gradientTransform="translate(32.5398 10.451) rotate(54.463) scale(26.5835 60.5382)">
<stop offset="0.243" stop-color="#E07F16" stop-opacity="0"/>
<stop offset="0.924" stop-color="#E07F16"/>
</radialGradient>
<radialGradient id="paint3_radial_29_26" cx="0" cy="0" r="1" gradientUnits="userSpaceOnUse" gradientTransform="translate(57.0724 -0.909918) rotate(73.6981) scale(37.4868 49.0907)">
<stop offset="0.31" stop-color="#E07F16" stop-opacity="0"/>
<stop offset="0.6" stop-color="#E07F16"/>
</radialGradient>
<radialGradient id="paint4_radial_29_26" cx="0" cy="0" r="1" gradientUnits="userSpaceOnUse" gradientTransform="translate(45.0552 55.789) scale(30.4978 30.4978)">
<stop offset="0.454" stop-color="#E07F16"/>
<stop offset="0.913" stop-color="#E07F16" stop-opacity="0"/>
</radialGradient>
<radialGradient id="paint5_radial_29_26" cx="0" cy="0" r="1" gradientUnits="userSpaceOnUse" gradientTransform="translate(64.0684 35.3649) scale(26.9473 26.9473)">
<stop offset="0.585" stop-color="#E07F16"/>
<stop offset="1" stop-color="#E07F16" stop-opacity="0"/>
</radialGradient>
<radialGradient id="paint6_radial_29_26" cx="0" cy="0" r="1" gradientUnits="userSpaceOnUse" gradientTransform="translate(76.8867 43.0156) scale(24.778 24.778)">
<stop offset="0.098" stop-color="#E07F16"/>
<stop offset="0.759" stop-color="#E07F16" stop-opacity="0.125"/>
<stop offset="0.854" stop-color="#E07F16" stop-opacity="0"/>
</radialGradient>
<radialGradient id="paint7_radial_29_26" cx="0" cy="0" r="1" gradientUnits="userSpaceOnUse" gradientTransform="translate(2.80638 51.4096) scale(21.4013)">
<stop offset="0.353" stop-color="#F8C975"/>
<stop offset="0.508" stop-color="#F9C368"/>
<stop offset="0.794" stop-color="#FCB445"/>
<stop offset="1" stop-color="#FFA828"/>
</radialGradient>
<radialGradient id="paint8_radial_29_26" cx="0" cy="0" r="1" gradientUnits="userSpaceOnUse" gradientTransform="translate(12.3881 72.951) scale(18.7195 18.7195)">
<stop offset="0.353" stop-color="#F8C975"/>
<stop offset="0.508" stop-color="#F9C368"/>
<stop offset="0.794" stop-color="#FCB445"/>
<stop offset="1" stop-color="#FFA828"/>
</radialGradient>
<radialGradient id="paint9_radial_29_26" cx="0" cy="0" r="1" gradientUnits="userSpaceOnUse" gradientTransform="translate(6.02416 20.125) scale(31.2578 31.2578)">
<stop offset="0.221" stop-color="#F8C975"/>
<stop offset="0.535" stop-color="#FBBA53"/>
<stop offset="0.881" stop-color="#FFA828"/>
</radialGradient>
<radialGradient id="paint10_radial_29_26" cx="0" cy="0" r="1" gradientUnits="userSpaceOnUse" gradientTransform="translate(40.4147 1.78548) scale(25.4882)">
<stop offset="0.353" stop-color="#F8C975"/>
<stop offset="0.508" stop-color="#F9C368"/>
<stop offset="0.794" stop-color="#FCB445"/>
<stop offset="1" stop-color="#FFA828"/>
</radialGradient>
<radialGradient id="paint11_radial_29_26" cx="0" cy="0" r="1" gradientUnits="userSpaceOnUse" gradientTransform="translate(63.2713 6.95716) scale(19.1163 19.1163)">
<stop offset="0.353" stop-color="#F8C975"/>
<stop offset="0.508" stop-color="#F9C368"/>
<stop offset="0.794" stop-color="#FCB445"/>
<stop offset="1" stop-color="#FFA828"/>
</radialGradient>
<radialGradient id="paint12_radial_29_26" cx="0" cy="0" r="1" gradientUnits="userSpaceOnUse" gradientTransform="translate(79.3475 18.9928) scale(13.7085 13.7085)">
<stop offset="0.353" stop-color="#F8C975"/>
<stop offset="0.508" stop-color="#F9C368"/>
<stop offset="0.794" stop-color="#FCB445"/>
<stop offset="1" stop-color="#FFA828"/>
</radialGradient>
</defs>
</svg>
