<svg width="22" height="23" viewBox="0 0 22 23" fill="none" xmlns="http://www.w3.org/2000/svg">
<path fill-rule="evenodd" clip-rule="evenodd" d="M0 4.629C0 2.19895 1.96995 0.229004 4.4 0.229004H17.6C20.03 0.229004 22 2.19895 22 4.629V17.829C22 20.259 20.03 22.229 17.6 22.229H4.4C1.96995 22.229 0 20.259 0 17.829V4.629ZM4.4 2.429C3.18497 2.429 2.2 3.41398 2.2 4.629V17.829C2.2 19.0441 3.18497 20.029 4.4 20.029H11V12.329H9.9C9.29247 12.329 8.8 11.8365 8.8 11.229C8.8 10.6215 9.29247 10.129 9.9 10.129H11V8.479C11 6.3527 12.7237 4.629 14.85 4.629H15.51C16.1175 4.629 16.61 5.1215 16.61 5.729C16.61 6.33651 16.1175 6.829 15.51 6.829H14.85C13.9388 6.829 13.2 7.56773 13.2 8.479V10.129H15.51C16.1175 10.129 16.61 10.6215 16.61 11.229C16.61 11.8365 16.1175 12.329 15.51 12.329H13.2V20.029H17.6C18.8151 20.029 19.8 19.0441 19.8 17.829V4.629C19.8 3.41398 18.8151 2.429 17.6 2.429H4.4Z" fill="#FF5555"/>
</svg>
