<svg width="22" height="19" viewBox="0 0 22 19" fill="none" xmlns="http://www.w3.org/2000/svg">
<path d="M20.438 3.25002H10.032C9.563 3.25002 9.188 2.81202 9.188 2.37502V1.06202C9.188 0.624017 9.563 0.218018 10.032 0.218018H20.438C20.907 0.218018 21.313 0.624017 21.313 1.06202V2.37502C21.313 2.84402 20.907 3.25002 20.438 3.25002ZM20.438 8.31302H3.094C2.625 8.31302 2.219 7.93802 2.219 7.43802V6.15702C2.219 5.65702 2.625 5.31302 3.094 5.31302H20.438C20.907 5.31302 21.313 5.65702 21.313 6.15702V7.43802C21.313 7.93802 20.907 8.31302 20.438 8.31302ZM20.438 13.406H8.313C7.844 13.406 7.438 13 7.438 12.531V11.218C7.438 10.749 7.844 10.343 8.313 10.343H20.438C20.907 10.343 21.313 10.749 21.313 11.218V12.531C21.313 13 20.907 13.406 20.438 13.406ZM1.406 15.719H20.437C20.906 15.719 21.312 16.157 21.312 16.594V17.875C21.312 18.375 20.906 18.781 20.437 18.781H1.406C0.906 18.781 0.5 18.375 0.5 17.875V16.594C0.5 16.125 0.906 15.719 1.406 15.719Z" fill="#FF5555"/>
</svg>
