<svg width="33" height="30" viewBox="0 0 33 30" fill="none" xmlns="http://www.w3.org/2000/svg">
<path d="M26.8179 10.4099L31.6947 14.8669C32.2839 15.4131 32.1158 15.8342 31.3167 15.8342H27.6588V27.4792C27.6588 28.2783 26.9861 28.9927 26.187 28.9927H19.8385V20.836C19.8385 20.0369 19.1241 19.3226 18.325 19.3226H14.3307C13.5316 19.3226 12.8173 20.0369 12.8173 20.836V28.9927H6.46873C5.66962 28.9927 4.95526 28.2783 4.95526 27.4792V15.8342H1.33905C0.539938 15.8342 0.371774 15.4131 0.961021 14.8669L15.2133 1.91825C15.8025 1.37205 16.8115 1.37205 17.4411 1.91825L20.6779 4.81875V2.50615C20.6779 1.70704 21.3923 0.992676 22.1914 0.992676H25.3448C26.1439 0.992676 26.8166 1.70704 26.8166 2.50615L26.8179 10.4099Z" fill="black" stroke="black"/>
</svg>
