<svg width="41" height="37" viewBox="0 0 41 37" fill="none" xmlns="http://www.w3.org/2000/svg">
<path d="M33.7724 12.5122L39.8684 18.0835C40.6049 18.7662 40.3947 19.2926 39.3958 19.2926H34.8234V33.8489C34.8234 34.8478 33.9826 35.7407 32.9837 35.7407H25.0481V25.5449C25.0481 24.546 24.1551 23.6531 23.1562 23.6531H18.1634C17.1645 23.6531 16.2716 24.546 16.2716 25.5449V35.7407H8.33592C7.33702 35.7407 6.44407 34.8478 6.44407 33.8489V19.2926H1.92382C0.924922 19.2926 0.714717 18.7662 1.45128 18.0835L19.2666 1.89769C20.0031 1.21495 21.2644 1.21495 22.0514 1.89769L26.0974 5.52331V2.63257C26.0974 1.63367 26.9904 0.740723 27.9893 0.740723H31.931C32.9299 0.740723 33.7707 1.63367 33.7707 2.63257L33.7724 12.5122Z" fill="#FF5555" stroke="#FF5555"/>
</svg>
