<svg width="22" height="23" viewBox="0 0 22 23" fill="none" xmlns="http://www.w3.org/2000/svg">
<path fill-rule="evenodd" clip-rule="evenodd" d="M11 17.229C14.3137 17.229 17 14.5427 17 11.229C17 7.91529 14.3137 5.229 11 5.229C7.68629 5.229 5 7.91529 5 11.229C5 14.5427 7.68629 17.229 11 17.229ZM11 15.229C13.2091 15.229 15 13.4381 15 11.229C15 9.01986 13.2091 7.229 11 7.229C8.79086 7.229 7 9.01986 7 11.229C7 13.4381 8.79086 15.229 11 15.229Z" fill="#FF5555"/>
<path d="M17 4.229C16.4477 4.229 16 4.67672 16 5.229C16 5.78128 16.4477 6.229 17 6.229C17.5523 6.229 18 5.78128 18 5.229C18 4.67672 17.5523 4.229 17 4.229Z" fill="#FF5555"/>
<path fill-rule="evenodd" clip-rule="evenodd" d="M0.65396 3.50506C0 4.78853 0 6.46869 0 9.829V12.629C0 15.9893 0 17.6695 0.65396 18.9529C1.2292 20.0819 2.14708 20.9998 3.27606 21.575C4.55953 22.229 6.23969 22.229 9.6 22.229H12.4C15.7603 22.229 17.4405 22.229 18.7239 21.575C19.8529 20.9998 20.7708 20.0819 21.346 18.9529C22 17.6695 22 15.9893 22 12.629V9.829C22 6.46869 22 4.78853 21.346 3.50506C20.7708 2.37608 19.8529 1.4582 18.7239 0.882964C17.4405 0.229004 15.7603 0.229004 12.4 0.229004H9.6C6.23969 0.229004 4.55953 0.229004 3.27606 0.882964C2.14708 1.4582 1.2292 2.37608 0.65396 3.50506ZM12.4 2.229H9.6C7.88684 2.229 6.72225 2.23056 5.82208 2.3041C4.94524 2.37574 4.49684 2.50559 4.18404 2.66497C3.43139 3.04847 2.81947 3.66039 2.43597 4.41304C2.27659 4.72584 2.14674 5.17424 2.0751 6.05108C2.00156 6.95125 2 8.11584 2 9.829V12.629C2 14.3422 2.00156 15.5067 2.0751 16.4069C2.14674 17.2838 2.27659 17.7322 2.43597 18.045C2.81947 18.7976 3.43139 19.4095 4.18404 19.793C4.49684 19.9524 4.94524 20.0823 5.82208 20.1539C6.72225 20.2274 7.88684 20.229 9.6 20.229H12.4C14.1132 20.229 15.2777 20.2274 16.1779 20.1539C17.0548 20.0823 17.5032 19.9524 17.816 19.793C18.5686 19.4095 19.1805 18.7976 19.564 18.045C19.7234 17.7322 19.8533 17.2838 19.9249 16.4069C19.9984 15.5067 20 14.3422 20 12.629V9.829C20 8.11584 19.9984 6.95125 19.9249 6.05108C19.8533 5.17424 19.7234 4.72584 19.564 4.41304C19.1805 3.66039 18.5686 3.04847 17.816 2.66497C17.5032 2.50559 17.0548 2.37574 16.1779 2.3041C15.2777 2.23056 14.1132 2.229 12.4 2.229Z" fill="#FF5555"/>
</svg>
