<svg width="24" height="25" viewBox="0 0 24 25" fill="none" xmlns="http://www.w3.org/2000/svg">
<g clip-path="url(#clip0_29_884)">
<path fill-rule="evenodd" clip-rule="evenodd" d="M5.50264 1H18.4974C20.9738 1 23 3.0262 23 5.50264V18.4974C23 20.9738 20.9738 23 18.4974 23H5.50264C3.0262 23.0001 1 20.9739 1 18.4974V5.50264C1 3.0262 3.0262 1 5.50264 1Z" fill="#FF5555" stroke="#FF5555"/>
<path fill-rule="evenodd" clip-rule="evenodd" d="M11.9785 4.64453C16.4362 4.64453 20.0498 7.53818 20.0498 11.1077C20.0498 12.3545 19.6086 13.5186 18.8448 14.5059C18.807 14.5621 18.7576 14.6242 18.6954 14.6928L18.6907 14.6979C18.4298 15.0101 18.1359 15.3031 17.8129 15.5736C15.5809 17.6367 11.907 20.0929 11.4221 19.714C11.0006 19.3846 12.1164 17.7734 10.8291 17.5053C10.7393 17.495 10.6497 17.4839 10.5609 17.4714L10.5592 17.4712V17.4711C6.7784 16.934 3.90723 14.2894 3.90723 11.1077C3.90711 7.53818 7.52081 4.64453 11.9785 4.64453Z" fill="white" stroke="#FF5555"/>
<path fill-rule="evenodd" clip-rule="evenodd" d="M7.29594 13.1686H8.9238C9.15535 13.1686 9.34474 12.9792 9.34474 12.7476V12.7125C9.34474 12.481 9.15535 12.2916 8.9238 12.2916H7.752V9.62553C7.752 9.39398 7.56261 9.20459 7.33106 9.20459H7.29594C7.06439 9.20459 6.875 9.39398 6.875 9.62553V12.7476C6.875 12.9792 7.06439 13.1686 7.29594 13.1686ZM17.383 11.2117V11.1766C17.383 10.945 17.1935 10.7556 16.962 10.7556H15.7902V10.0891H16.962C17.1935 10.0891 17.383 9.89971 17.383 9.66816V9.63304C17.383 9.40149 17.1935 9.2121 16.962 9.2121H15.3341C15.1026 9.2121 14.9132 9.40149 14.9132 9.63304V12.7551C14.9132 12.9867 15.1026 13.1761 15.3341 13.1761H16.962C17.1935 13.1761 17.383 12.9867 17.383 12.7551V12.72C17.383 12.4884 17.1935 12.299 16.962 12.299H15.7902V11.6325H16.962C17.1935 11.6326 17.383 11.4432 17.383 11.2117ZM14.2524 13.0431L14.2525 13.043C14.3304 12.9644 14.3742 12.8583 14.3743 12.7477V9.62565C14.3743 9.3941 14.1849 9.20471 13.9533 9.20471H13.9181C13.6866 9.20471 13.4972 9.3941 13.4972 9.62565V11.4583L11.9757 9.41757C11.903 9.29067 11.7661 9.20471 11.6102 9.20471H11.5751C11.3435 9.20471 11.1541 9.3941 11.1541 9.62565V12.7477C11.1541 12.9793 11.3435 13.1687 11.5751 13.1687H11.6102C11.8417 13.1687 12.0311 12.9793 12.0311 12.7477V10.8807L13.5636 12.9738C13.573 12.9885 13.5833 13.0026 13.5945 13.016L13.5945 13.0161C13.6366 13.0735 13.6942 13.1129 13.7584 13.137C13.8077 13.1573 13.8616 13.1686 13.9181 13.1686H13.9532C14.0218 13.1687 14.0893 13.1518 14.1499 13.1195C14.192 13.0995 14.2274 13.0736 14.2524 13.0431ZM10.1054 13.1686H10.1406C10.3721 13.1686 10.5615 12.9792 10.5615 12.7476V9.62559C10.5615 9.39404 10.3721 9.20465 10.1406 9.20465H10.1054C9.87389 9.20465 9.68444 9.39404 9.68444 9.62559V12.7476C9.68444 12.9792 9.87389 13.1686 10.1054 13.1686Z" fill="#FF5555" stroke="#FF5555"/>
</g>
<defs>
<clipPath id="clip0_29_884">
<rect width="24" height="24" fill="white" transform="translate(0 0.229004)"/>
</clipPath>
</defs>
</svg>
