<svg width="15" height="25" viewBox="0 0 15 25" fill="none" xmlns="http://www.w3.org/2000/svg">
<path d="M0.924347 24.4325C0.572839 24.0809 0.375372 23.604 0.375372 23.1068C0.375372 22.6097 0.572839 22.1328 0.924347 21.7812L10.2056 12.5L0.924347 3.21872C0.582801 2.86509 0.393811 2.39146 0.398084 1.89984C0.402356 1.40822 0.599546 0.93795 0.947186 0.590309C1.29483 0.242668 1.7651 0.0454788 2.25672 0.0412064C2.74834 0.0369339 3.22197 0.225924 3.5756 0.567471L14.1825 11.1743C14.534 11.526 14.7314 12.0028 14.7314 12.5C14.7314 12.9972 14.534 13.474 14.1825 13.8256L3.5756 24.4325C3.22398 24.784 2.74715 24.9814 2.24997 24.9814C1.75279 24.9814 1.27596 24.784 0.924347 24.4325Z" fill="white"/>
</svg>
